# xmcd
#
# Track frame offsets:
#	150
#	19234
#	28639
#	38486
#	66743
#	88917
#	101905
#	121767
#	141216
#	154850
#
# Disc length: 2249 seconds
#
# Revision: 1
# Processed by: cddbd v1.5.2PL0 Copyright (c) Steve Scherf et al.
# Submitted via: audiograbber 1.83.01
#
DISCID=8808c70a
DTITLE=Crooked Brothers - Lawrence, Where´s Your Knife?
DYEAR=2011
DGENRE=Country
TTITLE0=Horses
TTITLE1=Kansas
TTITLE2=Cold As You
TTITLE3=Bluebirds
TTITLE4=Your Love Is A Ghost Town
TTITLE5=Up The Mountain
TTITLE6=Another Sun
TTITLE7=Working For The Goverment
TTITLE8=Winter´s Come
TTITLE9=Good Man
EXTD=
EXTT0=
EXTT1=
EXTT2=
EXTT3=
EXTT4=
EXTT5=
EXTT6=
EXTT7=
EXTT8=
EXTT9=
PLAYORDER=
